<?xml version="1.0" encoding="utf-8"?>
<!DOCTYPE svg PUBLIC "-//W3C//DTD SVG 1.1//EN" "http://www.w3.org/Graphics/SVG/1.1/DTD/svg11.dtd">
<svg version="1.1" id="Layer_1" xmlns="http://www.w3.org/2000/svg" xmlns:xlink="http://www.w3.org/1999/xlink" x="0px" y="0px"
	 viewBox="0 0 26 26" enable-background="new 0 0 26 26" xml:space="preserve">
<g id="GitHub">
</g>
<g id="Soundcloud_3_">
</g>
<g id="Dropbox_2_">
</g>
<g id="Instagram_7_">
</g>
<g id="WordPress_3_">
</g>
<g id="PlayStation">
</g>
<g id="XBox_2_">
</g>
<g id="Windows_2_">
</g>
<g id="iOS_1_">
</g>
<g id="Apple_2_">
</g>
<g id="Android_2_">
</g>
<g id="Deviantart_2_">
</g>
<g id="Yelp_2_">
</g>
<g id="Picassa_6_">
</g>
<g id="LastFM_2_">
</g>
<path fill="#3A4551" d="M20,13.3c0-1.6,0-7.1,0-8.5S18.5,0,13.3,0c-5.3,0-8,3.2-8,6l4.4,0.4c0,0,1-2.9,3.3-2.9s2.7,1.8,2.7,2.2
	c0,0.1,0,0.8,0,1.9c-3,0.1-11.4,0.9-11.4,6.7c0,6.3,8.8,6.6,11.5,2.5c0.1,0.2,0.2,0.3,0.3,0.5c1,1,2.4,2.2,2.4,2.2l3.4-3.2
	C21.9,16.3,20,14.9,20,13.3z M15.6,12.6c0,4.7-5.6,3.9-5.6,1c0-2.7,3.6-3.3,5.6-3.3C15.6,11.1,15.6,11.9,15.6,12.6z"/>
<path fill="#F39C12" d="M0.5,19.6c4.4,2.6,11.3,6.8,22.3,1.8c0.4-0.2,0.8,0.1,0.3,0.7c-0.4,0.6-4.2,3.8-10.4,3.8
	c-6.3,0-11.1-4.1-12.6-5.8C-0.3,19.6,0.2,19.4,0.5,19.6z"/>
<path fill="#F39C12" d="M25.9,19.7c-0.3-0.4-1.8-0.4-2.7-0.3c-1,0.1-2.4,0.6-2.3,1c0.1,0.1,0.2,0.1,0.9,0c0.7-0.1,2.5-0.3,2.8,0.2
	c0.4,0.5-0.5,2.8-0.8,3.2c-0.2,0.4,0.1,0.5,0.4,0.2c0.3-0.2,0.9-0.9,1.3-1.8C25.9,21.3,26.1,20.1,25.9,19.7z"/>
<g id="AIM_2_">
</g>
<g id="fffound_1_">
</g>
<g id="Forrst_3_">
</g>
<g id="Yahoo_3_">
</g>
<g id="YouTube_3_">
</g>
<g id="Behance_2_">
</g>
<g id="Tumblr_2_">
</g>
<g id="Vimeo_2_">
</g>
<g id="Skype_3_">
</g>
<g id="Pinterest_2_">
</g>
<g id="LinkedIn_1_">
</g>
<g id="Dribbble_3_">
</g>
<g id="Flickr_3_">
</g>
<g id="Google_Plus_2_">
</g>
<g id="RSS_2_">
</g>
<g id="Twitter_2_">
</g>
<g id="Facebook_2_">
</g>
<g id="Lockup">
</g>
</svg>
