<?xml version="1.0" encoding="utf-8"?>
<!DOCTYPE svg PUBLIC "-//W3C//DTD SVG 1.1//EN" "http://www.w3.org/Graphics/SVG/1.1/DTD/svg11.dtd">
<svg version="1.1" id="Layer_1" xmlns="http://www.w3.org/2000/svg" xmlns:xlink="http://www.w3.org/1999/xlink" x="0px" y="0px"
	 viewBox="0 0 178 30" enable-background="new 0 0 178 30" xml:space="preserve">
<path fill="#3A4551" d="M28.4,29.5V9c0-2.4,0.2-4.1,0.5-5.1c0.3-1,1-1.9,2.1-2.7c1.1-0.7,2.4-1.1,4-1.1c3.1,0,4.6,1.9,5.1,2.5
	c0.7-0.7,2.1-2.5,5.4-2.5c1.3,0,2.5,0.3,3.5,0.8c0.7,0.4,1.3,1,1.9,1.7c0.6-0.6,2-2.5,5.3-2.5c1.6,0,3,0.4,4,1.1
	c1.1,0.7,1.8,1.6,2.1,2.7c0.3,1,0.5,2.8,0.5,5.1v20.5h-0.1h-9.3h-0.1v-20c0-0.8,0-1.4,0-1.9c0-0.5-0.1-0.8-0.1-1.1
	c-0.1-0.3-0.2-0.6-0.4-0.8c-0.3-0.3-0.6-0.4-1-0.4c-0.4,0-1,0.1-1.2,0.8c-0.2,0.6-0.3,2.1-0.3,4.6v18.8h0h-9.3h0V10.7
	c0-2.5-0.1-4-0.3-4.6c-0.2-0.6-0.7-0.8-1.2-0.8c-0.4,0-0.7,0.1-1,0.4C38.1,5.9,38,6.2,38,6.5c-0.1,0.3-0.1,0.6-0.1,1.1
	c0,0.5,0,1.1,0,1.9v20h-0.1H28.4L28.4,29.5L28.4,29.5z"/>
<path fill="#3A4551" d="M87.2,6.1c-0.3-1-0.9-2-1.7-2.9c-0.8-0.9-2-1.7-3.6-2.3C80.4,0.3,78.5,0,76.4,0c-2.6,0-4.7,0.5-6.3,1.4
	c-1.6,0.9-2.8,2.1-3.4,3.6c-0.6,1.5-1,3.6-1,6.3v7.4c0,2.5,0.2,4.3,0.5,5.5c0.3,1.2,0.9,2.3,1.7,3.1c0.8,0.9,2,1.5,3.4,1.9
	c1.5,0.4,3.3,0.6,5.4,0.6c1.9,0,3.6-0.3,5.1-0.8c1.5-0.5,2.7-1.3,3.6-2.3c0.9-1.1,1.5-2.2,1.8-3.4c0.3-1.2,0.4-3.1,0.4-5.7v-7.1
	C87.7,8.7,87.5,7.1,87.2,6.1L87.2,6.1z M78.1,21.9c0,1.2-0.1,2.1-0.3,2.4c-0.2,0.4-0.6,0.6-1.1,0.6c-0.6,0-0.9-0.2-1.1-0.6
	c-0.2-0.4-0.3-1.3-0.3-2.7V8.5c0-1.5,0.1-2.4,0.3-2.8c0.2-0.4,0.6-0.6,1.1-0.6c0.6,0,0.9,0.2,1.1,0.6C78,6.1,78.1,7,78.1,8.5V21.9
	L78.1,21.9z M112.1,6.1c-0.3-1-0.9-2-1.7-2.9c-0.8-0.9-2-1.7-3.6-2.3c-1.5-0.6-3.4-0.9-5.6-0.9c-2.6,0-4.7,0.5-6.3,1.4
	c-1.6,0.9-2.8,2.1-3.4,3.6c-0.6,1.5-1,3.6-1,6.3v7.4c0,2.5,0.2,4.3,0.5,5.5c0.3,1.2,0.9,2.3,1.7,3.1c0.8,0.9,2,1.5,3.4,1.9
	c1.5,0.4,3.3,0.6,5.4,0.6c1.9,0,3.6-0.3,5.1-0.8c1.5-0.5,2.7-1.3,3.6-2.3c0.9-1.1,1.5-2.2,1.8-3.4c0.3-1.2,0.4-3.1,0.4-5.7v-7.1
	C112.6,8.7,112.4,7.1,112.1,6.1L112.1,6.1z M103,21.9c0,1.2-0.1,2.1-0.3,2.4c-0.2,0.4-0.6,0.6-1.1,0.6c-0.6,0-0.9-0.2-1.1-0.6
	c-0.2-0.4-0.3-1.3-0.3-2.7V8.5c0-1.5,0.1-2.4,0.3-2.8c0.2-0.4,0.6-0.6,1.1-0.6c0.6,0,0.9,0.2,1.1,0.6c0.2,0.4,0.3,1.3,0.3,2.8V21.9
	L103,21.9z"/>
<path fill="#3A4551" d="M165.3,0c3.2,0,5.7,0.5,7.3,1.6c1.6,1,2.6,2.3,3,3.9c0.2,0.8,0.3,2.2,0.4,4l1.9,20.1h-10.2l-0.5-5.3l-3.7,0
	l-0.5,5.2h-10.2l1.9-19.8c0.1-1.9,0.2-3.3,0.4-4.2c0.3-1.5,1.3-2.8,3-3.9C159.6,0.6,162.1,0,165.3,0 M167.2,19.4
	c0-1.5-0.2-11.3-0.5-13.5c-0.1-0.5-0.7-0.7-1.4-0.7c-0.6,0-1.2,0.2-1.2,0.7c-0.3,2.2-0.5,12.1-0.5,13.6"/>
<path fill="#3A4551" d="M12.8,0c3.2,0,5.7,0.5,7.3,1.6c1.6,1,2.6,2.3,3,3.9c0.2,0.8,0.3,2.2,0.4,4l1.9,20.1H15.2l-0.5-5.3l-3.7,0
	l-0.5,5.2H0.2L2.1,9.7c0.1-1.9,0.2-3.3,0.4-4.2c0.3-1.5,1.3-2.8,3-3.9C7.1,0.6,9.6,0,12.8,0 M14.7,19.4c0-1.5-0.2-11.3-0.5-13.5
	c-0.1-0.5-0.7-0.7-1.4-0.7c-0.6,0-1.2,0.2-1.2,0.7c-0.3,2.2-0.5,12.1-0.5,13.6"/>
<path fill="#3A4551" d="M115.3,29.5V9c0-2.4,0.2-4.1,0.5-5.1c0.3-1,1-1.9,2.1-2.7c1.1-0.7,2.4-1.1,4-1.1c3.1,0,4.6,1.9,5.1,2.5
	c0.7-0.7,2.1-2.5,5.4-2.5c1.3,0,2.5,0.3,3.5,0.8c0.7,0.4,1.3,1,1.9,1.7c0.6-0.6,2-2.5,5.3-2.5c1.6,0,3,0.4,4,1.1
	c1.1,0.7,1.8,1.6,2.1,2.7c0.3,1,0.5,2.8,0.5,5.1v20.5h-0.1h-9.3h-0.1v-20c0-0.8,0-1.4,0-1.9c0-0.5-0.1-0.8-0.1-1.1
	c-0.1-0.3-0.2-0.6-0.4-0.8c-0.3-0.3-0.6-0.4-1-0.4c-0.4,0-1,0.1-1.2,0.8c-0.2,0.6-0.3,2.1-0.3,4.6v18.8h0h-9.3h0V10.7
	c0-2.5-0.1-4-0.3-4.6c-0.2-0.6-0.7-0.8-1.2-0.8c-0.4,0-0.7,0.1-1,0.4c-0.2,0.2-0.3,0.5-0.4,0.8c-0.1,0.3-0.1,0.6-0.1,1.1
	c0,0.5,0,1.1,0,1.9v20h-0.1H115.3L115.3,29.5L115.3,29.5z"/>
</svg>
