<svg xmlns="http://www.w3.org/2000/svg" viewBox="0 0 178 30"><path fill="#3A4551" d="M28.4 29.5V9c0-2.4.2-4.1.5-5.1s1-1.9 2.1-2.7C32.1.5 33.4.1 35 .1c3.1 0 4.6 1.9 5.1 2.5.7-.7 2.1-2.5 5.4-2.5 1.3 0 2.5.3 3.5.8.7.4 1.3 1 1.9 1.7.6-.6 2-2.5 5.3-2.5 1.6 0 3 .4 4 1.1 1.1.7 1.8 1.6 2.1 2.7.3 1 .5 2.8.5 5.1v20.5h-9.5v-20-1.9c0-.5-.1-.8-.1-1.1-.1-.3-.2-.6-.4-.8-.3-.3-.6-.4-1-.4s-1 .1-1.2.8c-.2.6-.3 2.1-.3 4.6v18.8H41V10.7c0-2.5-.1-4-.3-4.6-.2-.6-.7-.8-1.2-.8-.4 0-.7.1-1 .4-.4.2-.5.5-.5.8-.1.3-.1.6-.1 1.1v21.9h-9.5zM87.2 6.1c-.3-1-.9-2-1.7-2.9-.8-.9-2-1.7-3.6-2.3-1.5-.6-3.4-.9-5.5-.9-2.6 0-4.7.5-6.3 1.4-1.6.9-2.8 2.1-3.4 3.6-.6 1.5-1 3.6-1 6.3v7.4c0 2.5.2 4.3.5 5.5.3 1.2.9 2.3 1.7 3.1.8.9 2 1.5 3.4 1.9 1.5.4 3.3.6 5.4.6 1.9 0 3.6-.3 5.1-.8 1.5-.5 2.7-1.3 3.6-2.3.9-1.1 1.5-2.2 1.8-3.4.3-1.2.4-3.1.4-5.7v-7.1c.1-1.8-.1-3.4-.4-4.4zm-9.1 15.8c0 1.2-.1 2.1-.3 2.4-.2.4-.6.6-1.1.6-.6 0-.9-.2-1.1-.6-.2-.4-.3-1.3-.3-2.7V8.5c0-1.5.1-2.4.3-2.8.2-.4.6-.6 1.1-.6.6 0 .9.2 1.1.6.2.4.3 1.3.3 2.8v13.4zm34-15.8c-.3-1-.9-2-1.7-2.9-.8-.9-2-1.7-3.6-2.3-1.5-.6-3.4-.9-5.6-.9-2.6 0-4.7.5-6.3 1.4-1.6.9-2.8 2.1-3.4 3.6-.6 1.5-1 3.6-1 6.3v7.4c0 2.5.2 4.3.5 5.5.3 1.2.9 2.3 1.7 3.1.8.9 2 1.5 3.4 1.9 1.5.4 3.3.6 5.4.6 1.9 0 3.6-.3 5.1-.8 1.5-.5 2.7-1.3 3.6-2.3.9-1.1 1.5-2.2 1.8-3.4.3-1.2.4-3.1.4-5.7v-7.1c.2-1.8 0-3.4-.3-4.4zM103 21.9c0 1.2-.1 2.1-.3 2.4-.2.4-.6.6-1.1.6-.6 0-.9-.2-1.1-.6-.2-.4-.3-1.3-.3-2.7V8.5c0-1.5.1-2.4.3-2.8.2-.4.6-.6 1.1-.6.6 0 .9.2 1.1.6.2.4.3 1.3.3 2.8v13.4zM165.3 0c3.2 0 5.7.5 7.3 1.6 1.6 1 2.6 2.3 3 3.9.2.8.3 2.2.4 4l1.9 20.1h-10.2l-.5-5.3h-3.7l-.5 5.2h-10.2l1.9-19.8c.1-1.9.2-3.3.4-4.2.3-1.5 1.3-2.8 3-3.9 1.5-1 4-1.6 7.2-1.6m1.9 19.4c0-1.5-.2-11.3-.5-13.5-.1-.5-.7-.7-1.4-.7-.6 0-1.2.2-1.2.7-.3 2.2-.5 12.1-.5 13.6M12.8 0c3.2 0 5.7.5 7.3 1.6 1.6 1 2.6 2.3 3 3.9.2.8.3 2.2.4 4l1.9 20.1H15.2l-.5-5.3H11l-.5 5.2H.2L2.1 9.7c.1-1.9.2-3.3.4-4.2.3-1.5 1.3-2.8 3-3.9C7.1.6 9.6 0 12.8 0m1.9 19.4c0-1.5-.2-11.3-.5-13.5-.1-.5-.7-.7-1.4-.7-.6 0-1.2.2-1.2.7-.3 2.2-.5 12.1-.5 13.6M115.3 29.5V9c0-2.4.2-4.1.5-5.1s1-1.9 2.1-2.7c1.1-.7 2.4-1.1 4-1.1 3.1 0 4.6 1.9 5.1 2.5.7-.7 2.1-2.5 5.4-2.5 1.3 0 2.5.3 3.5.8.7.4 1.3 1 1.9 1.7.6-.6 2-2.5 5.3-2.5 1.6 0 3 .4 4 1.1 1.1.7 1.8 1.6 2.1 2.7.3 1 .5 2.8.5 5.1v20.5h-9.5v-20-1.9c0-.5-.1-.8-.1-1.1-.1-.3-.2-.6-.4-.8-.3-.3-.6-.4-1-.4s-1 .1-1.2.8c-.2.6-.3 2.1-.3 4.6v18.8h-9.3V10.7c0-2.5-.1-4-.3-4.6-.2-.6-.7-.8-1.2-.8-.4 0-.7.1-1 .4-.2.2-.3.5-.4.8-.1.3-.1.6-.1 1.1v21.9h-9.6z"/></svg>