<?xml version="1.0" encoding="utf-8"?>
<!DOCTYPE svg PUBLIC "-//W3C//DTD SVG 1.1//EN" "http://www.w3.org/Graphics/SVG/1.1/DTD/svg11.dtd">
<svg version="1.1" id="Layer_1" xmlns="http://www.w3.org/2000/svg" xmlns:xlink="http://www.w3.org/1999/xlink" x="0px" y="0px"
	 viewBox="0 0 22 16" enable-background="new 0 0 22 16" xml:space="preserve">
<g>
	<path fill="#3A4551" d="M8.4,5.1H3.2c-0.2,0-0.3,0.1-0.3,0.3c0,0.2,0.1,0.3,0.3,0.3h5.2c0.2,0,0.3-0.1,0.3-0.3
		C8.7,5.2,8.6,5.1,8.4,5.1z"/>
	<path fill="#3A4551" d="M8.4,7.5H3.2c-0.2,0-0.3,0.1-0.3,0.3c0,0.2,0.1,0.3,0.3,0.3h5.2c0.2,0,0.3-0.1,0.3-0.3
		C8.7,7.6,8.6,7.5,8.4,7.5z"/>
	<path fill="#3A4551" d="M8.4,10H3.2c-0.2,0-0.3,0.1-0.3,0.3c0,0.2,0.1,0.3,0.3,0.3h5.2c0.2,0,0.3-0.1,0.3-0.3
		C8.7,10.1,8.6,10,8.4,10z"/>
	<path fill="#3A4551" d="M13.3,5.4c0,0.2,0.1,0.3,0.3,0.3h5.2c0.2,0,0.3-0.1,0.3-0.3c0-0.2-0.1-0.3-0.3-0.3h-5.2
		C13.4,5.1,13.3,5.2,13.3,5.4z"/>
	<path fill="#3A4551" d="M18.7,7.5h-5.2c-0.2,0-0.3,0.1-0.3,0.3c0,0.2,0.1,0.3,0.3,0.3h5.2C18.9,8.1,19,8,19,7.8
		C19,7.6,18.9,7.5,18.7,7.5z"/>
	<path fill="#3A4551" d="M18.7,10h-5.2c-0.2,0-0.3,0.1-0.3,0.3c0,0.2,0.1,0.3,0.3,0.3h5.2c0.2,0,0.3-0.1,0.3-0.3
		C19,10.1,18.9,10,18.7,10z"/>
	<path fill="#3A4551" d="M16.1,0c-1.9,0-4,0.3-5.1,1C9.9,0.3,7.8,0,5.9,0C3.2,0,0,0.6,0,2.2v13c0,0.2,0.1,0.4,0.3,0.6
		C0.4,16,0.7,16,0.9,16c1.5-0.3,3.2-0.4,5-0.4s3.5,0.1,5,0.4c0,0,0,0,0.1,0c0,0,0,0,0,0c0,0,0,0,0,0c0,0,0.1,0,0.1,0c0,0,0,0,0,0
		c1.5-0.3,3.2-0.4,5-0.4s3.5,0.1,5,0.4c0,0,0.1,0,0.1,0c0.2,0,0.4-0.1,0.5-0.2c0.2-0.1,0.3-0.3,0.3-0.6v-13C22,0.6,18.8,0,16.1,0z
		 M1.5,14.4V2.3C1.8,2,3.4,1.5,5.9,1.5c2.5,0,4,0.5,4.4,0.8v12.1c-1.4-0.2-2.8-0.3-4.4-0.3S2.9,14.2,1.5,14.4z M20.5,14.4
		c-2.7-0.4-6-0.4-8.7,0V2.3c0.3-0.3,1.8-0.8,4.4-0.8s4,0.5,4.4,0.8L20.5,14.4L20.5,14.4z"/>
</g>
</svg>
