<?xml version="1.0" encoding="utf-8"?>
<!DOCTYPE svg PUBLIC "-//W3C//DTD SVG 1.1//EN" "http://www.w3.org/Graphics/SVG/1.1/DTD/svg11.dtd">
<svg version="1.1" id="Layer_1" xmlns="http://www.w3.org/2000/svg" xmlns:xlink="http://www.w3.org/1999/xlink" x="0px" y="0px"
	 viewBox="0 0 42 44" enable-background="new 0 0 42 44" xml:space="preserve">
<path fill="#3B97D3" d="M26.5,8.2H7.7C7.5,8.2,7.3,8,7.3,7.8c0-0.2,0.2-0.4,0.4-0.4h18.8c0.2,0,0.4,0.2,0.4,0.4
	C26.9,8,26.7,8.2,26.5,8.2z"/>
<path fill="#3B97D3" d="M26.5,11.3H7.7c-0.2,0-0.4-0.2-0.4-0.4c0-0.2,0.2-0.4,0.4-0.4h18.8c0.2,0,0.4,0.2,0.4,0.4
	C26.9,11.1,26.7,11.3,26.5,11.3z"/>
<path fill="#3B97D3" d="M26.5,14.4H7.7c-0.2,0-0.4-0.2-0.4-0.4c0-0.2,0.2-0.4,0.4-0.4h18.8c0.2,0,0.4,0.2,0.4,0.4
	C26.9,14.3,26.7,14.4,26.5,14.4z"/>
<path fill="#3B97D3" d="M26.5,17.5H7.7c-0.2,0-0.4-0.2-0.4-0.4s0.2-0.4,0.4-0.4h18.8c0.2,0,0.4,0.2,0.4,0.4S26.7,17.5,26.5,17.5z"/>
<path fill="#3B97D3" d="M26.5,20.6H7.7c-0.2,0-0.4-0.2-0.4-0.4s0.2-0.4,0.4-0.4h18.8c0.2,0,0.4,0.2,0.4,0.4S26.7,20.6,26.5,20.6z"/>
<path fill="#3B97D3" d="M26.5,23.8H7.7c-0.2,0-0.4-0.2-0.4-0.4c0-0.2,0.2-0.4,0.4-0.4h18.8c0.2,0,0.4,0.2,0.4,0.4
	C26.9,23.6,26.7,23.8,26.5,23.8z"/>
<path fill="#3B97D3" d="M41.8,22.1c0-0.2-0.1-0.4-0.2-0.5l0,0l-2.1-2l0,0c-0.1-0.1-0.3-0.2-0.5-0.2l-2-0.1c-0.2,0-0.4,0.1-0.6,0.2
	l0,0L25.3,30.3c-0.3,0.3-0.3,0.8,0,1.1c0.2,0.2,0.4,0.2,0.6,0.2s0.4-0.1,0.6-0.2l10.9-10.6l1.3,0.1l1.6,1.6l0.1,1.3L29.4,34.4
	c-0.3,0.3-0.3,0.8,0,1.1c0.2,0.2,0.4,0.2,0.6,0.2c0.2,0,0.4-0.1,0.6-0.2l11.1-10.9c0.2-0.2,0.2-0.4,0.2-0.6l0,0L41.8,22.1z"/>
<path fill="#3B97D3" d="M28,33.2l10.8-10.5c0.2-0.2,0.2-0.4,0-0.5c-0.2-0.2-0.4-0.2-0.6,0L27.5,32.7c-0.2,0.2-0.2,0.4,0,0.5
	c0.1,0.1,0.2,0.1,0.3,0.1C27.8,33.3,28,33.3,28,33.2z"/>
<path fill="#2C3E50" d="M32.7,34.5v5.4c0,1.3-0.9,2.5-2.2,2.5H4.2c-1.3,0-2.6-1.2-2.6-2.5V3.7c0-1.3,1.3-2.1,2.6-2.1h26.3
	c1.3,0,2.2,0.9,2.2,2.1V22l1.6-1.6V3.7c0-2.1-1.6-3.7-3.8-3.7H4.2C2,0,0,1.6,0,3.7v36.2C0,42.1,2,44,4.2,44h26.3
	c2.2,0,3.8-1.9,3.8-4.1v-7L32.7,34.5z"/>
<path fill="#3B97D3" d="M28.2,35.7l-2.8,0.6l-1.1-1.1l0.7-2.7c0.1-0.4-0.2-0.9-0.6-0.9c-0.4-0.1-0.9,0.2-1,0.6l-1.3,5.3
	c-0.1,0.4,0.2,0.9,0.6,0.9c0.1,0,0.1,0,0.2,0c0.1,0,0.1,0,0.2,0l0,0l5.5-1.2c0.4-0.1,0.7-0.5,0.6-0.9C29.1,35.9,28.7,35.6,28.2,35.7
	z"/>
</svg>
