<?xml version="1.0" encoding="utf-8"?>
<!DOCTYPE svg PUBLIC "-//W3C//DTD SVG 1.1//EN" "http://www.w3.org/Graphics/SVG/1.1/DTD/svg11.dtd">
<svg version="1.1" id="Layer_1" xmlns="http://www.w3.org/2000/svg" xmlns:xlink="http://www.w3.org/1999/xlink" x="0px" y="0px"
	 viewBox="0 0 86 26" enable-background="new 0 0 86 26" xml:space="preserve">
<g id="形状_4_3_" enable-background="new    ">
	<g id="形状_4">
		<g>
			<path fill="#3A4551" d="M59.3,11.4c-1.5-0.9-3.3-1.1-5-1.1l4.5-6.4c0.4-0.6,0.7-0.9,0.7-1.2l0-1.7c0-0.3-0.2-0.5-0.5-0.5l-8.7,0
				c-0.3,0-0.5,0.2-0.5,0.5V3c0,0.3,0.2,0.5,0.5,0.5l4.6,0l-5.2,7.5c-0.3,0.5-0.3,1-0.3,1.3v2c0,0.3,0.3,0.6,0.6,0.4
				c3-1.6,6.5-1.4,9.2,0c0.3,0.2,0.6-0.2,0.6-0.4v-2.1C59.7,11.9,59.6,11.6,59.3,11.4z M28.9,0.3c-1.6,0-3,0.8-3.7,2.5
				c-0.7-1.7-1.8-2.5-3.5-2.5c-1.6,0-2.9,0.8-3.5,2.5h0V1.1c0-0.2-0.2-0.4-0.5-0.5l-2.5,0c-0.3,0-0.5,0.2-0.5,0.5l0,13.5
				c0,0.2,0.2,0.4,0.5,0.4h2.7c0.3,0,0.5-0.2,0.5-0.5l0-7.2c0-1.6-0.1-3.7,1.8-3.7c1.9,0,1.6,2.2,1.6,3.7l0,7.2
				c0,0.3,0.2,0.5,0.5,0.5H25c0.3,0,0.5-0.2,0.5-0.5V7.4c0-0.8,0-1.9,0.2-2.6c0.3-0.7,0.9-1.1,1.6-1.1c0.8,0,1.4,0.3,1.6,1.2
				C29,5.4,29,6.8,29,7.4l0,7.2c0,0.3,0.2,0.5,0.5,0.5h2.7c0.3,0,0.5-0.2,0.5-0.5l0-8.5c0-1.5,0.2-3.1-0.7-4.2
				C31.2,0.8,30,0.3,28.9,0.3z M67,0.3c-3.8,0-6,3.3-6,7.5c0,4.2,2.1,7.5,6,7.5c3.7,0,6.1-3.3,6.1-7.4C73.1,3.7,71,0.3,67,0.3z
				 M67,12.6c-2.1,0-2.1-3.5-2.1-5.2s0.1-4.3,2.1-4.3c0.8,0,1.4,0.4,1.7,1.3c0.3,1.1,0.4,2.4,0.4,3.6C69.2,9.7,69.1,12.6,67,12.6z
				 M85.3,1.9c-0.7-1.2-1.9-1.6-3.1-1.6c-1.8,0-2.9,0.9-3.6,2.7h-0.1V1c0-0.2-0.2-0.4-0.5-0.4l-2.5,0c-0.3,0-0.5,0.2-0.5,0.4l0,13.5
				c0,0.3,0.2,0.5,0.5,0.5h2.6c0.3,0,0.5-0.2,0.5-0.5V7.3c0-0.9,0-1.7,0.4-2.6c0.3-0.7,0.9-1.1,1.5-1.1c1.8,0,1.7,2.2,1.7,3.6v7.3
				c0,0.2,0.2,0.4,0.5,0.4h2.7c0.3,0,0.5-0.2,0.5-0.4V6.1C86,4.8,86,3,85.3,1.9z M46.5,10.1V6c0-1.7,0.1-3.3-1.2-4.5
				c-1-1-2.7-1.3-4-1.3c-2.5,0-5.4,0.9-5.9,4c-0.1,0.3,0.2,0.5,0.4,0.6l2.6,0.3c0.2,0,0.4-0.2,0.5-0.5C39,3.5,39.9,3,41,3
				c0.5,0,1.2,0.2,1.5,0.7c0.4,0.5,0.3,1.3,0.3,1.9v0.3c-1.5,0.2-3.6,0.3-5,0.9c-1.7,0.7-2.8,2.2-2.8,4.3c0,2.7,1.7,4.1,4,4.1
				c1.9,0,2.9-0.4,4.4-1.9c0.5,0.7,0.6,1,1.5,1.8c0.2,0.1,0.5,0.1,0.6-0.1l0,0c0.5-0.5,1.5-1.3,2-1.7c0.2-0.2,0.2-0.5,0-0.7
				C47,11.9,46.5,11.4,46.5,10.1z M42.3,11.4c-0.4,0.7-1.1,1.2-1.8,1.2c-1,0-1.6-0.8-1.6-1.9c0-2.2,2-2.7,4-2.7v0.6
				C42.8,9.6,42.8,10.5,42.3,11.4z M11.6,10.1V6c0-1.7,0.1-3.3-1.2-4.5c-1-1-2.7-1.3-4-1.3c-2.5,0-5.4,0.9-5.9,4
				C0.5,4.6,0.7,4.7,0.9,4.8l2.6,0.3C3.7,5,3.9,4.8,4,4.6C4.2,3.5,5.1,3,6.1,3c0.5,0,1.2,0.2,1.5,0.7C8,4.2,7.9,5,7.9,5.6v0.3
				c-1.5,0.2-3.6,0.3-5,0.9C1.2,7.6,0.1,9,0.1,11.1c0,2.7,1.7,4.1,4,4.1c1.9,0,2.9-0.4,4.4-1.9c0.5,0.7,0.6,1,1.5,1.8
				c0.2,0.1,0.5,0.1,0.6-0.1l0,0c0.5-0.5,1.5-1.3,2-1.7c0.2-0.2,0.2-0.5,0-0.7C12.2,11.9,11.6,11.4,11.6,10.1z M7.4,11.4
				c-0.4,0.7-1.1,1.2-1.8,1.2c-1,0-1.6-0.8-1.6-1.9C4,8.4,6,8,7.9,8v0.6C7.9,9.6,7.9,10.5,7.4,11.4z"/>
		</g>
	</g>
</g>
<g id="形状_4_2_" enable-background="new    ">
	<g id="形状_4_1_">
		<g>
			<path fill="#F2941B" d="M52.7,19.1c-5.6,2.4-11.7,3.5-17.2,3.5c-8.2,0-16.1-2.2-22.6-5.9c-0.6-0.3-1,0.2-0.5,0.7
				c6,5.3,13.8,8.5,22.6,8.5c6.2,0,13.5-1.9,18.5-5.6C54.2,19.7,53.5,18.7,52.7,19.1z M57.6,16.3c-0.5-0.7-5.2-1.2-8.1,0.7
				c-0.4,0.3-0.4,0.7,0.1,0.7c1.6-0.2,5.2-0.6,5.8,0.2c0.6,0.8-0.7,4.1-1.3,5.6c-0.2,0.5,0.2,0.6,0.6,0.3
				C57.4,21.6,58.1,17,57.6,16.3z"/>
		</g>
	</g>
</g>
</svg>
