<svg xmlns="http://www.w3.org/2000/svg" viewBox="0 0 86 26"><path fill="#3A4551" d="M59.3 11.4c-1.5-.9-3.3-1.1-5-1.1l4.5-6.4c.4-.6.7-.9.7-1.2V1c0-.3-.2-.5-.5-.5h-8.7c-.3 0-.5.2-.5.5v2c0 .3.2.5.5.5h4.6L49.7 11c-.3.5-.3 1-.3 1.3v2c0 .3.3.6.6.4 3-1.6 6.5-1.4 9.2 0 .3.2.6-.2.6-.4v-2.1c-.1-.3-.2-.6-.5-.8zM28.9.3c-1.6 0-3 .8-3.7 2.5-.7-1.7-1.8-2.5-3.5-2.5-1.6 0-2.9.8-3.5 2.5V1.1c0-.2-.2-.4-.5-.5h-2.5c-.3 0-.5.2-.5.5v13.5c0 .2.2.4.5.4h2.7c.3 0 .5-.2.5-.5V7.3c0-1.6-.1-3.7 1.8-3.7 1.9 0 1.6 2.2 1.6 3.7v7.2c0 .3.2.5.5.5H25c.3 0 .5-.2.5-.5V7.4c0-.8 0-1.9.2-2.6.3-.7.9-1.1 1.6-1.1.8 0 1.4.3 1.6 1.2.1.5.1 1.9.1 2.5v7.2c0 .3.2.5.5.5h2.7c.3 0 .5-.2.5-.5V6.1c0-1.5.2-3.1-.7-4.2C31.2.8 30 .3 28.9.3zM67 .3c-3.8 0-6 3.3-6 7.5s2.1 7.5 6 7.5c3.7 0 6.1-3.3 6.1-7.4C73.1 3.7 71 .3 67 .3zm0 12.3c-2.1 0-2.1-3.5-2.1-5.2S65 3.1 67 3.1c.8 0 1.4.4 1.7 1.3.3 1.1.4 2.4.4 3.6.1 1.7 0 4.6-2.1 4.6zM85.3 1.9C84.6.7 83.4.3 82.2.3c-1.8 0-2.9.9-3.6 2.7h-.1V1c0-.2-.2-.4-.5-.4h-2.5c-.3 0-.5.2-.5.4v13.5c0 .3.2.5.5.5h2.6c.3 0 .5-.2.5-.5V7.3c0-.9 0-1.7.4-2.6.3-.7.9-1.1 1.5-1.1 1.8 0 1.7 2.2 1.7 3.6v7.3c0 .2.2.4.5.4h2.7c.3 0 .5-.2.5-.4V6.1c.1-1.3.1-3.1-.6-4.2zm-38.8 8.2V6c0-1.7.1-3.3-1.2-4.5-1-1-2.7-1.3-4-1.3-2.5 0-5.4.9-5.9 4-.1.3.2.5.4.6l2.6.3c.2 0 .4-.2.5-.5C39 3.5 39.9 3 41 3c.5 0 1.2.2 1.5.7.4.5.3 1.3.3 1.9v.3c-1.5.2-3.6.3-5 .9-1.7.7-2.8 2.2-2.8 4.3 0 2.7 1.7 4.1 4 4.1 1.9 0 2.9-.4 4.4-1.9.5.7.6 1 1.5 1.8.2.1.5.1.6-.1.5-.5 1.5-1.3 2-1.7.2-.2.2-.5 0-.7-.5-.7-1-1.2-1-2.5zm-4.2 1.3c-.4.7-1.1 1.2-1.8 1.2-1 0-1.6-.8-1.6-1.9 0-2.2 2-2.7 4-2.7v.6c-.1 1-.1 1.9-.6 2.8zm-30.7-1.3V6c0-1.7.1-3.3-1.2-4.5-1-1-2.7-1.3-4-1.3-2.5 0-5.4.9-5.9 4 0 .4.2.5.4.6l2.6.3c.2-.1.4-.3.5-.5C4.2 3.5 5.1 3 6.1 3c.5 0 1.2.2 1.5.7.4.5.3 1.3.3 1.9v.3c-1.5.2-3.6.3-5 .9C1.2 7.6.1 9 .1 11.1c0 2.7 1.7 4.1 4 4.1 1.9 0 2.9-.4 4.4-1.9.5.7.6 1 1.5 1.8.2.1.5.1.6-.1.5-.5 1.5-1.3 2-1.7.2-.2.2-.5 0-.7-.4-.7-1-1.2-1-2.5zm-4.2 1.3c-.4.7-1.1 1.2-1.8 1.2-1 0-1.6-.8-1.6-1.9C4 8.4 6 8 7.9 8v.6c0 1 0 1.9-.5 2.8z"/><path fill="#F2941B" d="M52.7 19.1c-5.6 2.4-11.7 3.5-17.2 3.5-8.2 0-16.1-2.2-22.6-5.9-.6-.3-1 .2-.5.7 6 5.3 13.8 8.5 22.6 8.5 6.2 0 13.5-1.9 18.5-5.6.7-.6 0-1.6-.8-1.2zm4.9-2.8c-.5-.7-5.2-1.2-8.1.7-.4.3-.4.7.1.7 1.6-.2 5.2-.6 5.8.2.6.8-.7 4.1-1.3 5.6-.2.5.2.6.6.3 2.7-2.2 3.4-6.8 2.9-7.5z"/></svg>