<?xml version="1.0" encoding="utf-8"?>
<!DOCTYPE svg PUBLIC "-//W3C//DTD SVG 1.1//EN" "http://www.w3.org/Graphics/SVG/1.1/DTD/svg11.dtd">
<svg version="1.1" id="Layer_1" xmlns="http://www.w3.org/2000/svg" xmlns:xlink="http://www.w3.org/1999/xlink" x="0px" y="0px"
	 viewBox="0 0 20 16" enable-background="new 0 0 20 16" xml:space="preserve">
<g>
	<path fill="#3A4551" d="M12.9,5.6c-0.4,0.1-0.6,0.3-0.5,0.6l0,0c0.2,0.6,0.3,1.2,0.3,1.8c0,0.6-0.1,1.2-0.3,1.8
		c-0.1,0.3,0.1,0.5,0.5,0.6c0.1,0,0.1,0,0.2,0c0.3,0,0.6-0.2,0.7-0.4c0.2-0.7,0.3-1.4,0.3-2.1c0-0.7-0.1-1.4-0.3-2
		C13.7,5.7,13.3,5.5,12.9,5.6z"/>
	<path fill="#3A4551" d="M17.9,1.4c-0.2-0.2-0.6-0.3-0.9-0.2c-0.3,0.1-0.5,0.4-0.3,0.6h0c1.3,1.9,2,4,2,6.1c0,2.1-0.7,4.2-2,6.1
		c-0.2,0.2,0,0.5,0.3,0.6c0.1,0,0.2,0,0.3,0c0.3,0,0.5-0.1,0.6-0.3c1.4-2.1,2.1-4.3,2.1-6.5C20,5.7,19.3,3.5,17.9,1.4z"/>
	<path fill="#3A4551" d="M16.1,4.1c-0.1-0.3-0.5-0.4-0.9-0.3c-0.4,0.1-0.6,0.4-0.4,0.6c0.6,1.1,0.9,2.3,0.9,3.6
		c0,1.2-0.3,2.4-0.9,3.6c-0.1,0.3,0.1,0.5,0.4,0.6c0.1,0,0.2,0,0.2,0c0.3,0,0.6-0.1,0.7-0.3c0.6-1.3,0.9-2.6,0.9-3.9
		C17,6.6,16.7,5.3,16.1,4.1z"/>
	<path fill="#3A4551" d="M9.7,0.3c-1,0.7-3.5,2.9-4.9,4.2H0.5C0.2,4.4,0,4.7,0,5v6.1c0,0.3,0.2,0.5,0.5,0.5h4.3
		c1.5,1.3,3.9,3.4,4.8,4.1c1.2,0.8,1.4-0.6,1.4-0.6v-7V7.8v-7C11.1,0.8,10.9-0.6,9.7,0.3z"/>
</g>
</svg>
