<svg xmlns="http://www.w3.org/2000/svg" viewBox="0 0 20 16"><g fill="#3A4551"><path d="M12.9 5.6c-.4.1-.6.3-.5.6.2.6.3 1.2.3 1.8 0 .6-.1 1.2-.3 1.8-.1.3.1.5.5.6h.2c.3 0 .6-.2.7-.4.2-.7.3-1.4.3-2.1 0-.7-.1-1.4-.3-2-.1-.2-.5-.4-.9-.3zM17.9 1.4c-.2-.2-.6-.3-.9-.2-.3.1-.5.4-.3.6 1.3 1.9 2 4 2 6.1 0 2.1-.7 4.2-2 6.1-.2.2 0 .5.3.6h.3c.3 0 .5-.1.6-.3C19.3 12.2 20 10 20 7.8c0-2.1-.7-4.3-2.1-6.4z"/><path d="M16.1 4.1c-.1-.3-.5-.4-.9-.3-.4.1-.6.4-.4.6.6 1.1.9 2.3.9 3.6 0 1.2-.3 2.4-.9 3.6-.1.3.1.5.4.6h.2c.3 0 .6-.1.7-.3.6-1.3.9-2.6.9-3.9 0-1.4-.3-2.7-.9-3.9zM9.7.3c-1 .7-3.5 2.9-4.9 4.2H.5c-.3-.1-.5.2-.5.5v6.1c0 .3.2.5.5.5h4.3c1.5 1.3 3.9 3.4 4.8 4.1 1.2.8 1.4-.6 1.4-.6V.8c.1 0-.1-1.4-1.3-.5z"/></g></svg>