<svg xmlns="http://www.w3.org/2000/svg" viewBox="0 0 22 16"><g fill="#3A4551"><path d="M8.4 5.1H3.2c-.2 0-.3.1-.3.3 0 .2.1.3.3.3h5.2c.2 0 .3-.1.3-.3 0-.2-.1-.3-.3-.3zM8.4 7.5H3.2c-.2 0-.3.1-.3.3 0 .2.1.3.3.3h5.2c.2 0 .3-.1.3-.3 0-.2-.1-.3-.3-.3zM8.4 10H3.2c-.2 0-.3.1-.3.3 0 .2.1.3.3.3h5.2c.2 0 .3-.1.3-.3 0-.2-.1-.3-.3-.3zM13.3 5.4c0 .2.1.3.3.3h5.2c.2 0 .3-.1.3-.3 0-.2-.1-.3-.3-.3h-5.2c-.2 0-.3.1-.3.3zM18.7 7.5h-5.2c-.2 0-.3.1-.3.3 0 .2.1.3.3.3h5.2c.2 0 .3-.1.3-.3 0-.2-.1-.3-.3-.3zM18.7 10h-5.2c-.2 0-.3.1-.3.3 0 .2.1.3.3.3h5.2c.2 0 .3-.1.3-.3 0-.2-.1-.3-.3-.3z"/><path d="M16.1 0c-1.9 0-4 .3-5.1 1C9.9.3 7.8 0 5.9 0 3.2 0 0 .6 0 2.2v13c0 .2.1.4.3.6.1.2.4.2.6.2 1.5-.3 3.2-.4 5-.4s3.5.1 5 .4h.2c1.5-.3 3.2-.4 5-.4s3.5.1 5 .4h.1c.2 0 .4-.1.5-.2.2-.1.3-.3.3-.6v-13C22 .6 18.8 0 16.1 0zM1.5 14.4V2.3c.3-.3 1.9-.8 4.4-.8 2.5 0 4 .5 4.4.8v12.1c-1.4-.2-2.8-.3-4.4-.3s-3 .1-4.4.3zm19 0c-2.7-.4-6-.4-8.7 0V2.3c.3-.3 1.8-.8 4.4-.8s4 .5 4.4.8l-.1 12.1z"/></g></svg>