<svg xmlns="http://www.w3.org/2000/svg" viewBox="0 0 30 16"><path fill="#474A56" d="M15 4.9h-1v6.2h1c.7 0 1.2-.2 1.6-.5.4-.3.6-.9.6-1.5V7.2c0-.7-.2-1.3-.6-1.7-.4-.4-.9-.6-1.6-.6zM7 4.8H5.9V8H7c.3 0 .6 0 .8-.1l.6-.3c.1-.1.3-.3.3-.4.1-.2.1-.4.1-.6v-.3c0-.4-.1-.8-.4-1.1-.3-.2-.8-.4-1.4-.4z"/><path fill="#3A4551" d="M28.1 0H1.9C.8 0 0 .8 0 1.9v12.3c0 1 .8 1.9 1.9 1.9h26.3c1 0 1.9-.8 1.9-1.9V1.9C30 .8 29.2 0 28.1 0zM10.5 6.6c0 .4-.1.7-.2 1.1-.1.3-.3.6-.6.8-.3.3-.7.5-1.1.7-.4.1-1 .2-1.6.2H5.9v2.7c0 .2-.1.3-.2.5-.2.1-.3.2-.6.2s-.5-.1-.6-.2c-.2-.2-.2-.3-.2-.5v-8c0-.2.1-.3.2-.5.2-.1.4-.2.6-.2H7c.6 0 1.1.1 1.6.2.4.2.8.4 1 .7.3.3.5.6.6 1 .1.4.2.8.2 1.2l.1.1zm8.4 2.3c0 .5-.1 1-.2 1.5s-.4.9-.7 1.2c-.3.3-.7.6-1.2.8-.5.2-1.1.3-1.7.3h-1.9c-.3 0-.5-.1-.6-.2-.2-.1-.2-.3-.2-.5V4.1c0-.2.1-.3.2-.5.2-.1.4-.2.6-.2H15c.7 0 1.2.1 1.7.3.5.2.9.5 1.2.8.3.4.5.8.7 1.3.1.5.2 1 .2 1.5v1.6zm7.4-4.2c-.1.1-.3.2-.6.2h-3.1v2.4h2.2c.3 0 .5.1.6.2.1.1.2.3.2.6 0 .2-.1.4-.2.5-.1.1-.3.2-.6.2h-2.2v3.3c0 .2-.1.3-.2.5-.2.1-.4.2-.6.2-.3 0-.5-.1-.6-.2s-.2-.3-.2-.5v-8c0-.2.1-.3.2-.5.2-.1.4-.2.6-.2h3.9c.3 0 .5.1.6.2.1.1.2.3.2.6 0 .2-.1.4-.2.5z"/></svg>