<?xml version="1.0" encoding="utf-8"?>
<!-- Generator: Adobe Illustrator 18.1.1, SVG Export Plug-In . SVG Version: 6.00 Build 0)  -->
<!DOCTYPE svg PUBLIC "-//W3C//DTD SVG 1.1//EN" "http://www.w3.org/Graphics/SVG/1.1/DTD/svg11.dtd">
<svg version="1.1" id="Layer_1" xmlns="http://www.w3.org/2000/svg" xmlns:xlink="http://www.w3.org/1999/xlink" x="0px" y="0px"
	 viewBox="0 0 30 16" enable-background="new 0 0 30 16" xml:space="preserve">
<path fill="#474A56" d="M15,4.9h-1v6.2h1c0.7,0,1.2-0.2,1.6-0.5c0.4-0.3,0.6-0.9,0.6-1.5V7.2c0-0.7-0.2-1.3-0.6-1.7
	C16.2,5.1,15.7,4.9,15,4.9z"/>
<path fill="#474A56" d="M7,4.8H5.9V8H7c0.3,0,0.6,0,0.8-0.1C8,7.8,8.2,7.7,8.4,7.6c0.1-0.1,0.3-0.3,0.3-0.4C8.8,7,8.8,6.8,8.8,6.6
	V6.3c0-0.4-0.1-0.8-0.4-1.1C8.1,5,7.6,4.8,7,4.8z"/>
<path fill="#3A4551" d="M28.1,0H1.9C0.8,0,0,0.8,0,1.9v12.3c0,1,0.8,1.9,1.9,1.9h26.3c1,0,1.9-0.8,1.9-1.9V1.9C30,0.8,29.2,0,28.1,0
	z M10.5,6.6c0,0.4-0.1,0.7-0.2,1.1C10.2,8,10,8.3,9.7,8.5C9.4,8.8,9,9,8.6,9.2C8.2,9.3,7.6,9.4,7,9.4H5.9v2.7c0,0.2-0.1,0.3-0.2,0.5
	c-0.2,0.1-0.3,0.2-0.6,0.2c-0.3,0-0.5-0.1-0.6-0.2c-0.2-0.2-0.2-0.3-0.2-0.5v-8c0-0.2,0.1-0.3,0.2-0.5c0.2-0.1,0.4-0.2,0.6-0.2H7
	c0.6,0,1.1,0.1,1.6,0.2C9,3.8,9.4,4,9.6,4.3c0.3,0.3,0.5,0.6,0.6,1c0.1,0.4,0.2,0.8,0.2,1.2L10.5,6.6L10.5,6.6z M18.9,8.9
	c0,0.5-0.1,1-0.2,1.5c-0.1,0.5-0.4,0.9-0.7,1.2c-0.3,0.3-0.7,0.6-1.2,0.8c-0.5,0.2-1.1,0.3-1.7,0.3h-1.9c-0.3,0-0.5-0.1-0.6-0.2
	c-0.2-0.1-0.2-0.3-0.2-0.5V4.1c0-0.2,0.1-0.3,0.2-0.5c0.2-0.1,0.4-0.2,0.6-0.2H15c0.7,0,1.2,0.1,1.7,0.3c0.5,0.2,0.9,0.5,1.2,0.8
	c0.3,0.4,0.5,0.8,0.7,1.3c0.1,0.5,0.2,1,0.2,1.5V8.9z M26.3,4.7c-0.1,0.1-0.3,0.2-0.6,0.2h-3.1v2.4h2.2c0.3,0,0.5,0.1,0.6,0.2
	c0.1,0.1,0.2,0.3,0.2,0.6c0,0.2-0.1,0.4-0.2,0.5c-0.1,0.1-0.3,0.2-0.6,0.2h-2.2v3.3c0,0.2-0.1,0.3-0.2,0.5c-0.2,0.1-0.4,0.2-0.6,0.2
	c-0.3,0-0.5-0.1-0.6-0.2s-0.2-0.3-0.2-0.5V4.1c0-0.2,0.1-0.3,0.2-0.5c0.2-0.1,0.4-0.2,0.6-0.2h3.9c0.3,0,0.5,0.1,0.6,0.2
	c0.1,0.1,0.2,0.3,0.2,0.6C26.5,4.4,26.4,4.6,26.3,4.7z"/>
</svg>
