<svg xmlns="http://www.w3.org/2000/svg" viewBox="0 0 42 44" preserveAspectRatio="none slice"><path fill="#3B97D3" d="M26.5 8.2H7.7c-.2 0-.4-.2-.4-.4s.2-.4.4-.4h18.8c.2 0 .4.2.4.4s-.2.4-.4.4zM26.5 11.3H7.7c-.2 0-.4-.2-.4-.4s.2-.4.4-.4h18.8c.2 0 .4.2.4.4s-.2.4-.4.4zM26.5 14.4H7.7c-.2 0-.4-.2-.4-.4s.2-.4.4-.4h18.8c.2 0 .4.2.4.4 0 .3-.2.4-.4.4zM26.5 17.5H7.7c-.2 0-.4-.2-.4-.4s.2-.4.4-.4h18.8c.2 0 .4.2.4.4s-.2.4-.4.4zM26.5 20.6H7.7c-.2 0-.4-.2-.4-.4s.2-.4.4-.4h18.8c.2 0 .4.2.4.4s-.2.4-.4.4zM26.5 23.8H7.7c-.2 0-.4-.2-.4-.4s.2-.4.4-.4h18.8c.2 0 .4.2.4.4s-.2.4-.4.4zM41.8 22.1c0-.2-.1-.4-.2-.5l-2.1-2c-.1-.1-.3-.2-.5-.2l-2-.1c-.2 0-.4.1-.6.2L25.3 30.3c-.3.3-.3.8 0 1.1.2.2.4.2.6.2s.4-.1.6-.2l10.9-10.6 1.3.1 1.6 1.6.1 1.3-11 10.6c-.3.3-.3.8 0 1.1.2.2.4.2.6.2.2 0 .4-.1.6-.2l11.1-10.9c.2-.2.2-.4.2-.6l-.1-1.9z"/><path fill="#3B97D3" d="M28 33.2l10.8-10.5c.2-.2.2-.4 0-.5-.2-.2-.4-.2-.6 0L27.5 32.7c-.2.2-.2.4 0 .5.1.1.2.1.3.1 0 0 .2 0 .2-.1z"/><path fill="#2C3E50" d="M32.7 34.5v5.4c0 1.3-.9 2.5-2.2 2.5H4.2c-1.3 0-2.6-1.2-2.6-2.5V3.7c0-1.3 1.3-2.1 2.6-2.1h26.3c1.3 0 2.2.9 2.2 2.1V22l1.6-1.6V3.7c0-2.1-1.6-3.7-3.8-3.7H4.2C2 0 0 1.6 0 3.7v36.2C0 42.1 2 44 4.2 44h26.3c2.2 0 3.8-1.9 3.8-4.1v-7l-1.6 1.6z"/><path fill="#3B97D3" d="M28.2 35.7l-2.8.6-1.1-1.1.7-2.7c.1-.4-.2-.9-.6-.9-.4-.1-.9.2-1 .6l-1.3 5.3c-.1.4.2.9.6.9h.4l5.5-1.2c.4-.1.7-.5.6-.9-.1-.4-.5-.7-1-.6z"/></svg>