<?xml version="1.0" encoding="utf-8"?>
<!DOCTYPE svg PUBLIC "-//W3C//DTD SVG 1.1//EN" "http://www.w3.org/Graphics/SVG/1.1/DTD/svg11.dtd">
<svg version="1.1" id="Layer_1" xmlns="http://www.w3.org/2000/svg" xmlns:xlink="http://www.w3.org/1999/xlink" x="0px" y="0px"
	 viewBox="0 0 22 16" enable-background="new 0 0 22 16" xml:space="preserve">
<path fill="#3A4551" d="M21.6,2.5c0-0.1,0-0.2-0.1-0.3c0,0,0-0.1,0-0.1c-0.3-0.9-1.1-1.5-2-1.5h0.1C19.7,0.6,16,0,11,0
	C6,0,2.3,0.6,2.3,0.6h0.1c-0.9,0-1.7,0.6-2,1.5c0,0,0,0.1,0,0.1c0,0.1,0,0.2-0.1,0.3C0.2,3.5,0,5.6,0,8c0,2.4,0.2,4.5,0.4,5.5
	c0,0.1,0,0.2,0.1,0.3c0,0,0,0.1,0,0.1c0.3,0.9,1.1,1.5,2,1.5H2.3c0,0,3.7,0.6,8.7,0.6c5,0,8.7-0.6,8.7-0.6h-0.1c0.9,0,1.7-0.6,2-1.5
	c0,0,0-0.1,0-0.1c0-0.1,0-0.2,0.1-0.3c0.1-1,0.4-3.1,0.4-5.5C22,5.6,21.8,3.5,21.6,2.5z M14.3,8.5l-4.4,3.4C9.7,12,9.6,12,9.5,12
	c-0.1,0-0.2,0-0.2-0.1C9.1,11.8,9,11.7,9,11.4V4.6c0-0.2,0.1-0.4,0.3-0.5c0.2-0.1,0.4-0.1,0.6,0l4.4,3.4c0.1,0.1,0.2,0.3,0.2,0.5
	C14.5,8.2,14.4,8.4,14.3,8.5z"/>
</svg>
