<svg xmlns="http://www.w3.org/2000/svg" viewBox="0 0 22 16"><path fill="#3A4551" d="M21.6 2.5c0-.1 0-.2-.1-.3v-.1c-.3-.9-1.1-1.5-2-1.5h.1C19.7.6 16 0 11 0S2.3.6 2.3.6h.1c-.9 0-1.7.6-2 1.5v.1c0 .1 0 .2-.1.3C.2 3.5 0 5.6 0 8s.2 4.5.4 5.5c0 .1 0 .2.1.3v.1c.3.9 1.1 1.5 2 1.5h-.2S6 16 11 16c5 0 8.7-.6 8.7-.6h-.1c.9 0 1.7-.6 2-1.5v-.1c0-.1 0-.2.1-.3.1-1 .4-3.1.4-5.5-.1-2.4-.3-4.5-.5-5.5zm-7.3 6l-4.4 3.4c-.2.1-.3.1-.4.1-.1 0-.2 0-.2-.1-.2-.1-.3-.2-.3-.5V4.6c0-.2.1-.4.3-.5.2-.1.4-.1.6 0l4.4 3.4c.1.1.2.3.2.5s-.1.4-.2.5z"/></svg>