<svg xmlns="http://www.w3.org/2000/svg" viewBox="0 0 26 26"><path fill="#3A4551" d="M20 13.3V4.8S18.5 0 13.3 0c-5.3 0-8 3.2-8 6l4.4.4s1-2.9 3.3-2.9 2.7 1.8 2.7 2.2v1.9c-3 .1-11.4.9-11.4 6.7 0 6.3 8.8 6.6 11.5 2.5.1.2.2.3.3.5 1 1 2.4 2.2 2.4 2.2l3.4-3.2s-1.9-1.4-1.9-3zm-4.4-.7c0 4.7-5.6 3.9-5.6 1 0-2.7 3.6-3.3 5.6-3.3v2.3z"/><path fill="#F39C12" d="M.5 19.6c4.4 2.6 11.3 6.8 22.3 1.8.4-.2.8.1.3.7-.4.6-4.2 3.8-10.4 3.8-6.3 0-11.1-4.1-12.6-5.8-.4-.5.1-.7.4-.5z"/><path fill="#F39C12" d="M25.9 19.7c-.3-.4-1.8-.4-2.7-.3-1 .1-2.4.6-2.3 1 .1.1.2.1.9 0s2.5-.3 2.8.2c.4.5-.5 2.8-.8 3.2-.2.4.1.5.4.2.3-.2.9-.9 1.3-1.8s.6-2.1.4-2.5z"/></svg>